<svg xmlns="http://www.w3.org/2000/svg" viewBox="0 0 400 240" preserveAspectRatio="xMidYMid slice">
  <rect width="400" height="240" fill="#EEF1EA"/>
  <path d="M250 0 C 262 40 238 70 262 104 C 282 132 268 168 300 196 C 318 214 326 230 340 240 L400 240 L400 0 Z" fill="#CFE2F3"/>
  <path d="M292 40 C 300 56 296 70 312 82 C 324 92 322 110 336 118" fill="none" stroke="#B9D4EC" stroke-width="3"/>
  <g fill="none" stroke="#FFFFFF" stroke-width="5" stroke-linecap="round">
    <path d="M0 150 C 60 140 110 160 170 120 S 240 70 258 60"/>
    <path d="M40 0 C 60 60 70 120 120 240"/>
    <path d="M0 70 C 80 80 150 60 250 100"/>
    <path d="M150 0 C 170 80 190 160 230 240"/>
  </g>
  <g fill="none" stroke="#F4D38C" stroke-width="2.5" stroke-linecap="round">
    <path d="M0 150 C 60 140 110 160 170 120 S 240 70 258 60"/>
    <path d="M40 0 C 60 60 70 120 120 240"/>
  </g>
  <g fill="none" stroke="#DDE2D8" stroke-width="1.5">
    <path d="M0 30 L 240 44"/><path d="M0 200 L 260 180"/><path d="M100 0 L 110 240"/><path d="M200 0 L 214 240"/>
  </g>
  <g fill="#D7E6CF">
    <rect x="60" y="92" width="44" height="30" rx="4"/><rect x="178" y="150" width="36" height="26" rx="4"/><rect x="120" y="30" width="30" height="22" rx="4"/>
  </g>
</svg>
